<?xml version="1.0" standalone="no"?>
<!DOCTYPE svg PUBLIC "-//W3C//DTD SVG 20010904//EN"
 "http://www.w3.org/TR/2001/REC-SVG-20010904/DTD/svg10.dtd">
<svg version="1.0" xmlns="http://www.w3.org/2000/svg"
 width="500.000000pt" height="500.000000pt" viewBox="0 0 500.000000 500.000000"
 preserveAspectRatio="xMidYMid meet">

<g transform="translate(0.000000,500.000000) scale(0.100000,-0.100000)"
fill="#000000" stroke="none">
<path d="M2191 4002 l-65 -17 -40 -122 c-23 -67 -44 -124 -47 -127 -3 -3 -50
36 -104 87 l-98 93 -79 -20 c-48 -11 -77 -23 -75 -30 2 -6 19 -74 37 -151 18
-77 35 -143 39 -147 5 -6 120 18 129 27 2 1 -6 39 -17 83 -12 44 -21 86 -21
93 0 8 37 -23 83 -68 l82 -82 47 11 47 11 31 98 c16 53 30 102 30 108 0 6 4
11 8 11 5 0 16 -35 26 -77 10 -43 20 -85 22 -94 4 -15 10 -15 67 -1 34 8 64
16 65 18 2 1 -13 73 -33 158 -41 175 -31 164 -134 138z"/>
<path d="M2726 3869 c-21 -77 -40 -147 -42 -154 -6 -13 24 -25 102 -41 l29 -6
25 96 c13 53 27 90 31 84 3 -7 18 -59 34 -115 l27 -101 50 -12 50 -12 84 83
c46 46 84 81 84 79 0 -3 -11 -47 -25 -99 -14 -52 -24 -95 -23 -97 9 -8 124
-32 129 -26 8 9 79 275 79 296 0 9 -3 16 -8 16 -4 0 -37 9 -74 19 l-68 20 -97
-90 c-53 -49 -100 -89 -103 -89 -4 0 -25 57 -47 127 l-40 127 -64 18 c-35 10
-71 18 -80 18 -12 0 -25 -34 -53 -141z"/>
<path d="M3641 3771 l-33 -27 23 -16 c22 -13 29 -13 73 1 51 18 51 19 -4 53
-25 15 -28 14 -59 -11z"/>
<path d="M3471 3594 c-45 -75 -80 -138 -79 -139 10 -9 106 -65 111 -65 11 0
168 270 163 279 -8 12 -91 61 -104 61 -5 0 -46 -61 -91 -136z"/>
<path d="M1265 3632 l-50 -36 3 -180 c2 -100 5 -187 7 -194 3 -8 22 -1 60 24
48 32 55 41 55 70 0 29 8 38 80 89 76 53 82 56 112 46 29 -10 37 -8 87 25 l55
37 -29 15 c-27 14 -297 130 -320 137 -5 2 -33 -13 -60 -33z m113 -106 l44 -22
-42 -28 c-23 -15 -44 -26 -46 -23 -9 8 -16 97 -8 97 5 -1 28 -11 52 -24z"/>
<path d="M3778 3494 c-30 -16 -44 -51 -34 -87 3 -13 33 -54 66 -92 63 -71 70
-85 45 -85 -20 0 -65 44 -65 63 0 8 -24 35 -54 61 -59 50 -66 48 -66 -23 0
-87 140 -221 230 -221 17 0 44 7 59 15 56 28 55 74 -2 151 -24 33 -54 68 -65
78 -25 22 -28 36 -8 36 21 0 66 -40 66 -59 0 -9 24 -38 54 -64 59 -51 66 -49
66 22 0 89 -139 222 -232 221 -18 -1 -45 -7 -60 -16z"/>
<path d="M871 3289 c-24 -28 -40 -54 -35 -58 5 -5 60 -54 122 -110 l114 -101
44 48 c24 26 43 49 44 52 0 6 -236 220 -242 220 -2 -1 -23 -23 -47 -51z"/>
<path d="M4203 3139 l-33 -21 35 -54 35 -54 -68 -43 c-37 -24 -84 -53 -105
-66 -42 -26 -44 -16 18 -108 l21 -32 103 65 c114 73 106 73 148 -3 10 -18 22
-33 28 -33 8 0 33 14 63 36 4 2 -185 302 -202 321 -9 9 -18 8 -43 -8z"/>
<path d="M1935 3039 c-159 -82 -348 -189 -369 -209 -12 -11 -21 -38 -24 -69
-4 -44 -9 -53 -42 -75 -20 -13 -45 -41 -55 -62 -17 -37 -17 -43 0 -171 15
-112 16 -143 6 -194 -22 -109 -70 -231 -107 -269 -18 -19 -39 -51 -45 -70 -6
-19 -26 -51 -44 -70 -141 -151 -179 -253 -191 -505 -8 -157 5 -235 45 -275 54
-54 233 -64 359 -20 74 26 88 42 108 120 9 36 25 77 35 91 38 53 51 151 47
329 l-5 165 35 52 c19 29 44 59 57 67 22 15 23 14 29 -37 11 -78 52 -194 98
-271 35 -59 39 -71 29 -93 -21 -47 -11 -93 31 -139 19 -22 19 -22 -14 -69 -43
-60 -46 -132 -9 -184 49 -68 185 -130 358 -163 104 -20 389 -17 493 6 177 37
287 92 338 167 34 49 27 121 -16 180 l-32 43 26 27 c30 32 43 103 25 138 -10
19 -8 29 16 66 19 31 33 43 44 40 11 -4 20 6 31 33 12 32 22 40 59 51 41 12
42 14 24 27 -11 8 -31 18 -44 21 -21 5 -22 10 -16 42 3 20 9 55 12 79 3 23 11
42 18 42 14 0 42 -31 82 -90 28 -41 29 -47 16 -67 -17 -25 -10 -75 13 -94 8
-6 14 -19 14 -29 0 -9 8 -24 19 -34 14 -13 20 -37 25 -114 10 -151 26 -250 47
-308 17 -44 31 -61 75 -93 79 -57 165 -78 261 -64 85 12 108 28 125 87 17 55
16 325 -1 440 -15 100 -57 194 -117 265 -38 44 -39 50 -33 140 2 26 -3 38 -22
52 -13 10 -37 28 -52 40 -16 12 -39 22 -52 22 -20 0 -28 9 -44 52 -55 146 -62
217 -41 393 16 132 7 163 -59 209 -34 25 -39 34 -44 78 -6 63 -22 76 -203 175
-209 113 -295 153 -306 142 -13 -13 11 -59 47 -92 22 -20 65 -88 65 -103 0 -2
-72 21 -160 51 -89 30 -164 52 -167 48 -14 -14 14 -62 51 -87 22 -14 43 -36
47 -48 12 -31 63 -58 132 -70 49 -9 68 -18 98 -47 21 -21 41 -50 44 -65 4 -15
20 -46 36 -68 23 -32 29 -52 29 -90 l0 -48 -47 23 c-57 30 -87 31 -81 6 7 -26
-33 -18 -61 12 l-21 23 40 12 c22 6 40 16 40 20 0 5 -25 19 -56 33 -54 23 -58
27 -79 84 -12 32 -26 58 -30 57 -5 -1 -18 -25 -31 -54 -12 -30 -27 -55 -33
-57 -6 -2 -39 6 -73 17 -283 92 -593 13 -783 -201 -36 -41 -45 -47 -40 -28 4
14 18 38 31 53 13 16 24 33 24 38 0 15 -39 10 -82 -11 -23 -11 -45 -20 -50
-20 -4 0 -8 22 -8 48 0 36 5 54 20 67 10 9 27 38 36 64 30 80 80 122 163 135
58 9 98 31 120 66 10 16 33 40 52 53 33 22 59 70 46 83 -3 4 -79 -18 -167 -48
-88 -31 -160 -55 -160 -54 0 13 47 85 79 122 39 45 49 73 26 81 -5 1 -55 -20
-110 -48z m69 -19 c-24 -25 -34 -28 -58 -22 -28 8 -28 8 25 34 30 14 56 24 58
22 3 -3 -8 -18 -25 -34z m1049 4 l32 -17 -30 -8 c-30 -9 -56 6 -76 43 -8 16
-7 17 16 8 14 -5 40 -17 58 -26z m-1107 -58 c12 -30 -85 -146 -122 -146 -12 0
-27 7 -34 15 -21 25 -34 17 -16 -10 l16 -24 -57 -17 c-52 -15 -83 -29 -149
-71 -21 -14 -22 -13 -18 39 2 38 9 58 24 70 40 32 239 138 262 139 13 0 32 4
43 9 30 13 45 12 51 -4z m1205 -6 c49 -9 256 -127 275 -155 9 -14 14 -40 12
-64 l-3 -40 -55 34 c-30 19 -76 40 -102 46 -53 14 -57 19 -28 37 11 7 20 17
20 22 0 5 -15 1 -32 -10 -18 -11 -41 -20 -50 -20 -40 0 -150 133 -133 161 4 6
18 8 34 3 14 -3 42 -10 62 -14z m-911 -9 c0 -10 -48 -51 -60 -51 -4 0 -11 7
-14 16 -4 10 4 19 27 29 38 17 47 18 47 6z m565 -5 c25 -11 33 -19 29 -30 -3
-9 -10 -16 -14 -16 -12 0 -60 41 -60 51 0 12 5 12 45 -5z m-661 -41 c16 -17
12 -39 -12 -67 -8 -9 -48 -25 -90 -34 -57 -13 -84 -25 -113 -51 -29 -26 -36
-29 -32 -14 3 11 23 35 45 55 46 42 42 60 -11 52 -32 -5 -30 -4 14 13 181 68
178 67 199 46z m842 -21 c116 -38 142 -50 83 -39 -54 10 -58 -10 -10 -53 50
-45 56 -77 7 -34 -23 20 -56 34 -107 46 -40 9 -81 24 -91 33 -21 18 -24 69 -5
76 6 3 12 6 13 6 0 1 49 -15 110 -35z m-1078 -87 c-16 -13 -28 -30 -28 -38 0
-27 -38 -57 -95 -75 -34 -11 -76 -35 -107 -62 -50 -42 -55 -44 -102 -39 -44 4
-47 3 -31 -9 10 -8 27 -14 38 -14 15 0 18 -5 13 -22 -3 -13 -6 -33 -6 -44 0
-15 -11 -26 -37 -37 l-38 -17 37 3 c35 3 36 2 40 -35 3 -34 -2 -44 -50 -98
-30 -34 -52 -64 -48 -67 3 -4 36 23 73 59 56 53 80 69 133 86 36 11 100 37
143 56 43 20 80 36 83 36 3 0 -4 -13 -15 -29 -12 -16 -21 -36 -21 -45 0 -8
-17 -27 -37 -42 -21 -15 -66 -48 -99 -73 -34 -25 -75 -54 -90 -63 -87 -53
-137 -113 -61 -74 34 18 34 14 1 -43 -38 -66 -54 -81 -83 -81 -16 0 -22 -3
-15 -10 6 -6 21 -6 41 -1 l31 9 7 -74 c4 -40 4 -95 0 -121 -5 -35 -4 -45 5
-37 18 18 27 107 17 181 -9 65 -8 73 17 119 14 27 26 61 26 77 0 21 8 32 31
45 18 9 52 32 77 51 l45 33 -7 -32 c-3 -18 -6 -43 -6 -56 0 -17 -13 -34 -45
-56 -52 -37 -56 -48 -17 -48 49 0 51 -7 40 -108 -10 -81 -14 -95 -35 -109 -13
-9 -47 -49 -75 -89 -51 -74 -243 -253 -256 -239 -4 4 -9 99 -10 212 l-4 205
41 124 c51 152 58 217 37 354 -8 58 -12 117 -9 130 10 41 34 70 57 70 12 0 52
18 87 39 36 22 97 49 135 61 38 12 94 30 124 40 73 24 80 24 48 -3z m1252 -5
c36 -11 90 -28 120 -37 30 -9 84 -35 121 -56 36 -21 75 -39 86 -39 14 0 29
-13 44 -36 l22 -36 -18 -135 c-19 -133 -19 -134 2 -226 11 -51 39 -138 62
-195 42 -106 46 -129 35 -194 -4 -24 -12 -38 -25 -41 -19 -5 -43 -51 -36 -71
2 -6 -8 -20 -22 -32 -53 -44 -121 -13 -188 84 -21 31 -56 75 -79 98 -39 39
-41 45 -48 118 -4 42 -17 113 -30 156 -19 65 -21 86 -13 113 l11 34 42 -31
c23 -17 55 -39 73 -48 23 -13 31 -24 31 -45 0 -16 12 -50 26 -77 25 -47 26
-54 17 -120 -10 -72 0 -162 19 -181 7 -7 8 4 3 34 -4 24 -4 81 0 127 6 77 8
83 25 74 10 -6 27 -10 37 -10 13 0 9 6 -13 19 -35 22 -78 74 -89 109 l-7 23
41 -20 c22 -12 53 -21 68 -20 26 0 26 1 -10 14 -21 8 -57 30 -80 48 -23 19
-53 40 -67 47 -57 29 -210 153 -210 170 0 9 -9 29 -21 44 -11 14 -18 26 -15
26 3 0 47 -18 96 -41 50 -22 114 -47 143 -55 41 -12 66 -30 119 -82 37 -36 70
-63 74 -59 4 3 -18 34 -47 69 -52 60 -54 65 -49 108 3 28 8 40 13 33 5 -7 23
-13 40 -13 l32 1 -30 13 c-38 16 -51 33 -60 74 -6 27 -4 32 12 32 11 0 28 6
38 14 16 12 13 13 -31 9 -48 -5 -52 -3 -103 40 -30 25 -68 49 -85 53 -53 11
-104 45 -115 76 -6 16 -21 38 -33 50 -13 11 -16 18 -8 15 8 -2 44 -13 80 -25z
m-1299 -149 c-11 -22 -27 -45 -35 -52 -11 -10 -16 -31 -16 -76 0 -70 -1 -71
-115 -106 -77 -24 -85 -24 -85 4 0 39 79 99 155 118 l30 7 -33 1 c-40 1 -98
-22 -131 -52 l-24 -22 7 45 c4 25 12 47 18 49 6 2 27 18 47 36 38 34 92 65
113 65 7 0 29 8 48 19 43 23 47 15 21 -36z m1103 -58 c25 -10 44 -21 41 -25
-2 -4 -25 -13 -49 -20 -40 -11 -47 -17 -66 -61 -11 -27 -22 -49 -24 -49 -3 0
-12 22 -21 49 -14 44 -21 52 -61 68 -24 10 -44 20 -44 23 0 3 19 13 43 21 34
12 46 24 67 64 l24 49 22 -51 c20 -44 29 -53 68 -68z m249 74 c28 -7 66 -28
96 -54 28 -24 55 -45 60 -47 5 -1 12 -27 16 -57 l7 -54 -31 35 c-23 26 -45 39
-81 48 -27 7 -55 10 -62 8 -7 -3 11 -10 39 -17 38 -9 61 -22 79 -44 29 -34 50
-74 43 -82 -7 -6 -106 21 -153 42 l-38 17 5 52 c5 47 2 57 -24 93 -17 22 -34
54 -39 71 -9 32 -9 32 15 16 13 -8 43 -20 68 -27z m-554 -34 c78 -19 91 -26
63 -36 -34 -13 -27 -22 37 -50 55 -25 59 -29 76 -80 10 -30 21 -58 26 -63 4
-5 19 17 33 48 l25 57 24 -18 c20 -15 23 -22 14 -40 -7 -17 -6 -28 7 -48 9
-14 21 -25 28 -25 30 0 -169 -155 -260 -203 -39 -21 -85 -51 -101 -68 -41 -40
-78 -161 -87 -279 -4 -53 -12 -93 -18 -95 -6 -2 -44 -8 -84 -15 -58 -9 -81
-19 -113 -46 -48 -40 -45 -44 6 -10 35 24 112 46 161 46 44 0 64 17 65 58 1
25 3 29 6 13 12 -61 -12 -80 -117 -97 -79 -12 -127 -42 -208 -131 -96 -105
-125 -124 -163 -111 -28 10 -116 110 -157 179 -12 20 -33 65 -46 100 -14 35
-25 57 -26 48 -1 -34 45 -145 86 -208 32 -48 36 -57 13 -31 -41 47 -105 180
-126 260 -17 66 -23 273 -9 288 4 4 17 -5 28 -21 11 -15 24 -27 28 -27 5 0 12
23 16 50 6 46 11 54 51 82 50 34 45 48 -17 48 -73 0 -67 35 27 167 82 117 251
227 393 257 87 19 240 19 319 1z m389 -197 c5 -45 -57 -62 -72 -21 -13 32 4
54 37 51 26 -2 33 -8 35 -30z m42 -28 c0 -13 -1 -13 -10 0 -5 8 -10 22 -10 30
0 13 1 13 10 0 5 -8 10 -22 10 -30z m-1211 -62 c-7 -13 -19 -34 -27 -47 l-16
-23 -8 23 c-6 16 -5 25 4 30 7 4 22 15 33 23 27 20 28 20 14 -6z m1301 -40 c0
-34 -19 -27 -43 16 l-25 45 34 -22 c19 -12 34 -30 34 -39z m-45 -55 c11 -28
-106 -129 -216 -188 -166 -89 -195 -130 -208 -294 -4 -55 -13 -107 -20 -115
-27 -32 -80 -56 -154 -70 -96 -19 -116 -29 -206 -110 -69 -62 -113 -87 -128
-72 -8 8 143 152 180 172 15 8 64 19 109 25 44 5 94 17 109 25 47 24 70 84 80
203 13 168 17 174 135 235 94 49 151 87 254 170 52 41 55 42 65 19z m-1233
-58 l43 -11 -32 -19 c-32 -19 -42 -39 -43 -85 -1 -24 -2 -24 -31 13 -25 29
-38 37 -65 37 -42 0 -43 10 -5 33 22 13 31 27 36 59 l7 42 24 -29 c15 -19 39
-34 66 -40z m1253 -176 c-46 -46 -85 -69 -168 -95 -69 -21 -124 -67 -132 -109
l-5 -30 13 27 c23 49 50 68 132 93 81 25 172 76 182 102 3 7 10 13 16 13 7 0
8 -32 4 -95 -5 -76 -10 -98 -26 -114 -11 -11 -23 -32 -27 -45 -4 -18 -17 -29
-42 -37 -58 -18 -60 -27 -14 -46 23 -9 42 -20 42 -26 0 -21 -74 -129 -108
-157 -50 -41 -168 -85 -282 -105 -92 -16 -384 -25 -397 -12 -7 8 25 36 90 78
38 25 63 33 126 39 96 10 137 27 194 79 47 44 60 74 78 189 7 49 18 81 33 97
11 14 71 49 131 79 61 29 127 68 149 85 53 43 58 39 11 -10z m515 -9 c13 -9
13 -11 0 -19 -17 -12 -30 -5 -30 15 0 16 9 18 30 4z m-2296 -430 c4 -25 17
-78 28 -119 47 -161 152 -190 186 -51 20 84 22 99 23 198 1 113 13 150 22 70
24 -198 -10 -389 -77 -433 -46 -30 -73 -28 -115 10 -74 67 -104 177 -122 444
-12 184 -9 220 19 260 17 25 17 21 23 -154 3 -99 9 -200 13 -225z m2357 390
c12 -7 19 -21 19 -40 0 -30 -1 -30 -42 -24 -24 4 -45 8 -47 10 -9 8 11 53 27
57 9 3 18 5 20 6 2 0 12 -4 23 -9z m3 -106 c20 -51 -10 -82 -56 -58 -47 24
-31 74 23 74 15 0 29 -7 33 -16z m-2449 -226 c-11 -304 15 -439 97 -519 l39
-38 -37 -7 c-52 -10 -196 1 -230 17 -48 23 -57 69 -50 254 6 181 15 235 52
314 26 58 113 180 127 181 5 0 6 -91 2 -202z m2395 132 c13 -25 5 -56 -16 -64
-20 -8 -64 22 -64 43 0 41 61 57 80 21z m117 -28 c81 -122 97 -196 98 -447 0
-208 -7 -238 -62 -256 -52 -17 -169 -7 -227 19 l-49 22 27 21 c33 26 60 78 79
155 21 83 27 134 36 332 7 152 11 175 27 187 29 22 37 19 71 -33z m-571 -28
l29 -12 -28 -13 c-16 -7 -36 -27 -45 -43 l-16 -31 -9 31 c-6 20 -20 37 -41 47
l-31 15 28 7 c17 4 34 20 44 39 l16 31 13 -30 c6 -17 25 -35 40 -41z m166 -33
c-21 -22 -32 -17 -32 13 0 32 10 39 31 20 16 -15 16 -17 1 -33z m233 -1 c15
-17 16 -24 7 -45 -20 -43 -82 -28 -82 20 0 45 44 59 75 25z m-2070 -298 c-12
-51 -21 -6 -24 123 -2 102 1 140 11 152 11 14 13 -5 16 -118 1 -74 0 -144 -3
-157z m1879 263 c-9 -14 -13 -32 -9 -45 7 -22 -4 -27 -23 -8 -27 27 -7 78 30
78 17 0 17 -2 2 -25z m94 -17 c14 -39 1 -60 -37 -56 -32 4 -51 48 -31 72 22
27 54 20 68 -16z m-2012 -285 c-2 -3 -14 1 -26 7 -24 13 -66 95 -76 148 -6 30
-2 39 42 83 l49 50 8 -142 c4 -78 5 -144 3 -146z m2150 261 c-3 -9 -6 -34 -6
-55 l0 -40 -39 33 -39 33 28 11 c15 7 31 17 34 23 11 17 29 13 22 -5z m-54
-82 l51 -49 -23 -109 c-33 -162 -73 -254 -110 -254 -32 0 -66 145 -76 329 -7
117 -6 120 13 115 19 -5 21 -16 26 -137 3 -81 11 -153 22 -185 22 -73 29 -60
10 19 -8 37 -15 112 -15 178 0 97 3 116 18 127 25 20 29 18 84 -34z m-1541
-117 c183 -72 487 -89 723 -40 76 16 187 56 215 77 14 11 14 11 3 -3 -19 -25
-124 -68 -204 -85 -98 -20 -106 -25 -28 -19 81 5 176 37 243 81 l52 34 -38
-34 c-40 -36 -104 -70 -172 -92 -38 -12 -38 -13 -10 -13 35 -1 129 36 174 68
44 32 39 9 -6 -26 -115 -88 -316 -129 -578 -120 -160 5 -262 23 -356 61 l-59
24 -30 -41 -30 -41 23 -24 c32 -34 137 -91 220 -119 71 -23 71 -24 22 -17 -63
7 -164 47 -232 90 -36 23 -53 29 -53 20 0 -32 113 -103 220 -137 30 -10 47
-18 37 -18 -24 -1 -168 47 -185 61 -7 6 -15 8 -18 5 -3 -3 27 -21 68 -41 115
-56 209 -71 443 -71 177 0 210 3 285 23 168 46 250 100 250 166 0 40 -6 42
-65 22 -22 -8 -60 -17 -85 -20 l-45 -7 50 19 c65 24 118 52 112 58 -3 3 -36
-4 -73 -15 -82 -24 -233 -55 -240 -49 -2 3 22 10 53 17 77 17 188 56 230 81
19 11 36 20 39 20 11 0 64 -96 64 -117 0 -94 -130 -179 -336 -219 -106 -21
-383 -24 -484 -5 -100 18 -215 59 -267 94 -101 69 -113 127 -45 222 l42 60
-24 20 c-29 25 -46 56 -46 88 0 37 10 39 47 11 19 -14 61 -37 94 -49z m989 71
c0 -2 -8 -10 -17 -17 -16 -13 -17 -12 -4 4 13 16 21 21 21 13z m-1716 -101 c9
-27 26 -67 39 -87 23 -39 81 -88 104 -88 21 0 15 -27 -9 -44 -19 -14 -20 -16
-5 -16 10 0 28 17 40 38 19 32 22 34 25 15 2 -12 -4 -36 -13 -53 -15 -29 -20
-32 -52 -27 -49 8 -79 31 -103 77 -23 46 -46 133 -53 203 -6 58 4 51 27 -18z
m989 -312 c-7 -2 -19 -2 -25 0 -7 3 -2 5 12 5 14 0 19 -2 13 -5z"/>
<path d="M1662 2068 c-34 -34 6 -90 48 -68 35 19 20 80 -20 80 -9 0 -21 -5
-28 -12z m52 -17 c10 -16 -6 -42 -23 -39 -9 2 -17 13 -19 26 -3 16 2 22 17 22
11 0 22 -4 25 -9z"/>
<path d="M1934 2325 c-20 -31 -10 -63 23 -71 35 -9 57 7 61 42 7 52 -55 74
-84 29z m65 -9 c17 -20 2 -46 -25 -46 -26 0 -40 20 -30 45 7 19 40 20 55 1z"/>
<path d="M2048 2085 c-30 -21 -41 -23 -69 -15 -58 17 -62 14 -36 -32 18 -31
22 -50 17 -68 -5 -14 -8 -33 -9 -43 -1 -17 1 -17 34 3 30 18 44 21 87 15 l51
-7 -22 38 c-18 31 -21 46 -16 86 4 26 5 48 3 48 -2 0 -20 -11 -40 -25z m16
-40 c-4 -25 -1 -43 10 -61 l17 -25 -34 6 c-25 5 -42 2 -60 -10 l-26 -17 6 36
c4 24 0 44 -10 60 l-16 24 37 -5 c24 -3 44 1 57 11 27 21 27 21 19 -19z"/>
<path d="M1896 1723 c16 -68 74 -174 74 -135 0 12 -71 162 -76 162 -3 0 -1
-12 2 -27z"/>
<path d="M1980 1560 c0 -14 52 -80 63 -80 11 0 -39 84 -53 88 -5 2 -10 -1 -10
-8z"/>
<path d="M3032 1848 c-29 -29 -3 -72 40 -66 19 2 23 9 23 38 0 30 -4 35 -25
38 -14 2 -31 -3 -38 -10z m48 -13 c10 -12 10 -18 0 -29 -14 -18 -40 -10 -40
13 0 32 20 40 40 16z"/>
<path d="M704 3031 c-18 -11 -43 -34 -57 -53 -44 -58 -158 -271 -150 -279 18
-17 265 -150 274 -147 5 2 23 27 39 56 l30 52 -32 20 c-18 11 -37 21 -42 23
-13 4 44 106 67 118 10 6 36 8 57 4 38 -6 38 -6 68 50 l31 56 -27 10 c-15 6
-44 8 -64 6 -33 -4 -38 -2 -38 15 0 11 -15 35 -34 54 -39 39 -75 44 -122 15z
m44 -138 c3 -22 -52 -143 -66 -143 -4 0 -18 9 -31 19 -23 17 -23 18 -6 52 45
89 96 125 103 72z"/>
<path d="M4357 2596 c-137 -51 -138 -51 -133 -79 3 -15 14 -45 23 -66 l18 -39
148 56 c144 54 149 57 144 81 -10 46 -37 101 -50 100 -6 -1 -74 -24 -150 -53z"/>
<path d="M405 2488 c-28 -124 -28 -116 10 -168 19 -26 35 -52 35 -58 0 -5 -25
-24 -55 -43 -52 -31 -55 -36 -65 -88 -6 -31 -14 -64 -17 -75 -6 -22 -10 -24
111 57 l90 60 77 -15 76 -14 12 49 c19 84 20 84 -63 102 l-74 16 -61 100 c-34
54 -64 99 -66 99 -3 0 -7 -10 -10 -22z"/>
<path d="M4458 2320 c-86 -16 -128 -78 -128 -188 0 -76 22 -162 52 -205 19
-27 66 -57 89 -57 16 0 3 131 -15 145 -39 30 -48 108 -17 146 27 34 95 33 123
-1 16 -20 18 -33 13 -75 -8 -55 -8 -195 -1 -202 10 -11 59 33 78 70 17 35 20
54 16 131 -8 175 -83 259 -210 236z"/>
<path d="M445 1855 c-82 -13 -150 -24 -151 -24 0 -1 5 -36 10 -78 13 -89 -1
-76 171 -155 l90 -40 -64 -57 c-36 -31 -83 -72 -104 -92 l-40 -36 11 -72 c6
-40 13 -76 16 -79 5 -4 187 17 285 35 l33 6 -7 60 c-3 34 -8 64 -10 68 -2 3
-46 0 -96 -8 -51 -7 -94 -12 -96 -9 -2 2 37 36 87 75 l90 72 -6 42 c-4 23 -11
47 -16 54 -5 6 -50 28 -101 48 -51 20 -96 40 -100 44 -4 4 38 13 93 21 85 10
100 15 96 29 -2 9 -8 40 -11 69 -4 30 -12 52 -18 51 -7 -1 -79 -12 -162 -24z"/>
<path d="M4367 1748 c-3 -13 -9 -44 -12 -70 -6 -41 -4 -48 14 -60 25 -15 26
-28 5 -140 -15 -82 -17 -87 -44 -93 -25 -6 -29 -12 -40 -71 -7 -36 -10 -67 -8
-70 3 -2 83 28 179 68 l173 73 13 60 13 60 -98 93 c-53 51 -118 111 -143 132
-45 39 -47 39 -52 18z m148 -251 l38 -33 -47 -18 c-26 -10 -49 -16 -52 -14 -6
7 8 98 16 98 4 0 24 -15 45 -33z"/>
</g>
</svg>
